<?xml version="1.0" encoding="utf-8"?>
<!-- Generator: Adobe Illustrator 18.0.0, SVG Export Plug-In . SVG Version: 6.00 Build 0)  -->
<!DOCTYPE svg PUBLIC "-//W3C//DTD SVG 1.1//EN" "http://www.w3.org/Graphics/SVG/1.1/DTD/svg11.dtd">
<svg version="1.1" id="Layer_1" xmlns="http://www.w3.org/2000/svg" xmlns:xlink="http://www.w3.org/1999/xlink" x="0px" y="0px"
	 viewBox="0 0 441.399 75" enable-background="new 0 0 441.399 75" xml:space="preserve">
<g>
	<rect x="84.281" y="3.5" fill="none" width="475.874" height="54.269"/>
	<path d="M109.48,45.219c-12.992,0-22.12-8.96-22.12-21.168c0-12.152,9.24-21.224,22.12-21.224c5.096,0,9.744,1.624,13.216,3.752
		l-2.408,5.936c-3.248-1.848-7.28-3.136-10.92-3.136c-9.016,0-14.504,5.992-14.504,14.672c0,8.624,5.656,14.616,14.672,14.616
		c3.64,0,7.896-1.288,11.2-3.248l2.128,5.936C119.449,43.539,114.576,45.219,109.48,45.219z"/>
	<path d="M150.713,44.547l-8.96-14.784c-0.729,0.056-1.4,0.056-2.184,0.056c-1.345,0-2.745-0.056-4.088-0.112v14.84h-7V3.891
		c3.248-0.392,6.664-0.672,10.808-0.672c11.647,0,16.8,5.656,16.8,12.936c0,5.32-2.912,9.632-8.008,11.872l10.752,16.52H150.713z
		 M140.185,9.491c-1.68,0-3.304,0.056-4.704,0.336v14c1.288,0.168,2.688,0.224,4.032,0.224c6.104,0,9.184-2.856,9.184-7.56
		C148.697,12.347,145.561,9.491,140.185,9.491z"/>
	<path d="M181.725,45.219c-11.872,0-20.552-9.016-20.552-21.168c0-12.208,9.072-21.224,20.943-21.224
		c11.872,0,20.553,9.016,20.553,21.224C202.669,36.203,193.597,45.219,181.725,45.219z M181.949,9.099
		c-7.84,0-13.271,6.384-13.271,14.952c0,8.512,5.432,14.952,13.271,14.952c7.784,0,13.217-6.44,13.217-14.952
		C195.165,15.483,189.733,9.099,181.949,9.099z"/>
	<path d="M218.949,45.219c-4.648,0-9.296-1.68-12.88-4.032l2.407-6.271c3.248,2.352,7.168,3.808,10.696,3.808
		c4.312,0,6.216-2.52,6.216-5.376c0-2.856-1.231-4.648-7.728-7.392c-7.168-3.024-9.744-6.72-9.744-11.648
		c0-5.936,4.928-11.48,13.496-11.48c3.976,0,7.896,1.344,10.304,2.968l-2.24,6.16c-2.184-1.512-5.432-2.912-8.231-2.912
		c-4.312,0-6.328,2.352-6.328,5.096c0,2.744,2.016,4.368,7.112,6.608c8.119,3.528,10.472,6.832,10.472,12.208
		C232.5,39.562,227.405,45.219,218.949,45.219z"/>
	<path d="M248.533,45.219c-4.648,0-9.296-1.68-12.88-4.032l2.407-6.271c3.248,2.352,7.168,3.808,10.696,3.808
		c4.312,0,6.216-2.52,6.216-5.376c0-2.856-1.231-4.648-7.728-7.392c-7.168-3.024-9.744-6.72-9.744-11.648
		c0-5.936,4.928-11.48,13.496-11.48c3.976,0,7.896,1.344,10.304,2.968l-2.24,6.16c-2.184-1.512-5.432-2.912-8.231-2.912
		c-4.312,0-6.328,2.352-6.328,5.096c0,2.744,2.016,4.368,7.112,6.608c8.119,3.528,10.472,6.832,10.472,12.208
		C262.084,39.562,256.989,45.219,248.533,45.219z"/>
	<path d="M305.686,45.219l-1.12,0.112l-12.769-28.56l-12.6,28.56l-1.063-0.112l-13.16-41.72h7.728l7.393,25.872l11.424-26.208h0.783
		l11.48,26.04l7.28-25.704h7.615L305.686,45.219z"/>
	<path d="M340.803,45.219c-11.872,0-20.552-9.016-20.552-21.168c0-12.208,9.072-21.224,20.943-21.224
		c11.872,0,20.553,9.016,20.553,21.224C361.747,36.203,352.675,45.219,340.803,45.219z M341.027,9.099
		c-7.84,0-13.271,6.384-13.271,14.952c0,8.512,5.432,14.952,13.271,14.952c7.784,0,13.217-6.44,13.217-14.952
		C354.243,15.483,348.811,9.099,341.027,9.099z"/>
	<path d="M391.102,44.547l-8.96-14.784c-0.728,0.056-1.399,0.056-2.184,0.056c-1.344,0-2.744-0.056-4.088-0.112v14.84h-7V3.891
		c3.248-0.392,6.664-0.672,10.808-0.672c11.648,0,16.8,5.656,16.8,12.936c0,5.32-2.912,9.632-8.008,11.872l10.752,16.52H391.102z
		 M380.575,9.491c-1.681,0-3.305,0.056-4.704,0.336v14c1.288,0.168,2.688,0.224,4.032,0.224c6.104,0,9.184-2.856,9.184-7.56
		C389.086,12.347,385.951,9.491,380.575,9.491z"/>
	<path d="M415.954,44.883c-4.479,0-7.672-0.28-11.816-0.672V3.891c3.977-0.448,7.337-0.672,11.425-0.672
		c16.239,0,24.247,9.352,24.247,20.44C439.81,35.195,432.195,44.883,415.954,44.883z M416.403,9.379
		c-2.017,0-3.809,0.112-5.265,0.336v28.616c1.736,0.28,3.192,0.336,5.881,0.336c10.527,0,15.287-6.328,15.287-15.008
		C432.306,15.147,426.819,9.379,416.403,9.379z"/>
</g>
<line fill="none" stroke="#B03060" stroke-width="4" stroke-miterlimit="10" x1="1.687" y1="38.5" x2="74.687" y2="38.5"/>
<line fill="none" stroke="#B03060" stroke-width="4" stroke-miterlimit="10" x1="37.687" y1="74.5" x2="37.687" y2="1.5"/>
<g>
	<rect x="87.794" y="56.129" fill="none" width="312.809" height="18.686"/>
	<path fill="#979FA7" d="M94.186,73.148c-1.426,0-3.104-0.138-4.553-0.322v-16.51c1.242-0.185,2.943-0.322,4.323-0.322
		c4.438,0,6.623,2.162,6.623,4.415c0,1.771-0.828,3.059-2.943,3.84c2.46,0.69,3.403,2.185,3.403,4.048
		C101.039,70.803,98.717,73.148,94.186,73.148z M94.462,58.478c-0.713,0-1.426,0.069-2,0.161v4.668
		c0.414,0.046,0.989,0.069,1.702,0.069c2.438,0,3.449-1.081,3.449-2.483C97.613,59.489,96.578,58.478,94.462,58.478z M94.209,65.422
		c-0.598,0-1.356,0.023-1.748,0.069v5.059c0.575,0.069,1.265,0.115,2.046,0.115c2.3,0,3.449-1.081,3.449-2.667
		C97.957,66.549,96.693,65.422,94.209,65.422z"/>
	<path fill="#979FA7" d="M110.53,65.905v7.082h-2.874v-7.105l-5.933-9.75h3.289l4.139,7.129l4.093-7.129h3.219L110.53,65.905z"/>
	<path fill="#979FA7" d="M130.562,58.754v14.233h-2.875V58.754h-5.358v-2.622h13.567v2.622H130.562z"/>
	<path fill="#979FA7" d="M148.892,72.987v-7.243h-7.749v7.243h-2.874V56.132h2.874v7.037h7.749v-7.037h2.875v16.855H148.892z"/>
	<path fill="#979FA7" d="M155.678,72.987V56.132h10.278v2.622h-7.404v4.415h6.691v2.529h-6.691v4.668h7.404v2.621H155.678z"/>
	<path fill="#979FA7" d="M182.793,73.264c-5.335,0-9.083-3.68-9.083-8.692c0-4.99,3.794-8.715,9.083-8.715
		c2.093,0,4.001,0.667,5.427,1.54l-0.988,2.438c-1.334-0.759-2.989-1.287-4.484-1.287c-3.702,0-5.956,2.46-5.956,6.024
		c0,3.541,2.323,6.002,6.025,6.002c1.494,0,3.242-0.529,4.599-1.334l0.874,2.438C186.886,72.573,184.886,73.264,182.793,73.264z"/>
	<path fill="#979FA7" d="M201.468,72.987v-7.243h-7.749v7.243h-2.874V56.132h2.874v7.037h7.749v-7.037h2.875v16.855H201.468z"/>
	<path fill="#979FA7" d="M208.304,72.987V56.132h2.875v16.855H208.304z"/>
	<path fill="#979FA7" d="M223.476,73.264c-5.335,0-9.083-3.68-9.083-8.692c0-4.99,3.794-8.715,9.083-8.715
		c2.093,0,4.001,0.667,5.427,1.54l-0.988,2.438c-1.334-0.759-2.989-1.287-4.484-1.287c-3.702,0-5.956,2.46-5.956,6.024
		c0,3.541,2.323,6.002,6.025,6.002c1.494,0,3.242-0.529,4.599-1.334l0.874,2.438C227.569,72.573,225.569,73.264,223.476,73.264z"/>
	<path fill="#979FA7" d="M243.154,72.987l-1.633-3.863h-6.668l-1.633,3.863h-2.967l7.772-17.085h0.414l7.749,17.085H243.154z
		 M238.187,61.214l-2.392,5.634h4.783L238.187,61.214z"/>
	<path fill="#979FA7" d="M261.792,64.065v7.358c-1.794,1.173-3.748,1.84-6.277,1.84c-4.806,0-8.945-3.495-8.945-8.692
		c0-5.243,4.208-8.715,8.945-8.715c2.483,0,4.254,0.689,5.979,1.747l-1.311,2.3c-1.356-0.874-2.967-1.402-4.53-1.402
		c-3.84,0-6.002,2.713-6.002,6.07c0,3.587,2.645,6.14,5.979,6.14c1.448,0,2.414-0.253,3.402-0.805v-3.312h-3.932v-2.529H261.792z"/>
	<path fill="#979FA7" d="M272.894,73.264c-4.875,0-8.439-3.702-8.439-8.692c0-5.013,3.726-8.715,8.601-8.715
		s8.438,3.702,8.438,8.715C281.493,69.562,277.769,73.264,272.894,73.264z M272.986,58.432c-3.22,0-5.45,2.621-5.45,6.14
		c0,3.495,2.23,6.14,5.45,6.14c3.196,0,5.427-2.645,5.427-6.14C278.412,61.053,276.182,58.432,272.986,58.432z"/>
	<path fill="#979FA7" d="M303.575,72.987l-0.229-10.095l-5.312,8.049h-0.346l-5.357-8.071l-0.184,10.117h-2.829l0.713-17.062
		l0.438-0.046l7.473,11.176l7.29-11.176l0.46,0.046l0.713,17.062H303.575z"/>
	<path fill="#979FA7" d="M321.271,72.987l-1.633-3.863h-6.668l-1.633,3.863h-2.967l7.772-17.085h0.414l7.749,17.085H321.271z
		 M316.304,61.214l-2.392,5.634h4.783L316.304,61.214z"/>
	<path fill="#979FA7" d="M335.503,72.987l-3.679-6.07c-0.299,0.022-0.575,0.022-0.896,0.022c-0.553,0-1.127-0.022-1.679-0.046v6.094
		h-2.875V56.293c1.334-0.161,2.736-0.275,4.438-0.275c4.783,0,6.898,2.322,6.898,5.312c0,2.185-1.196,3.955-3.288,4.875l4.415,6.783
		H335.503z M331.181,58.593c-0.69,0-1.357,0.022-1.932,0.138v5.749c0.528,0.069,1.104,0.092,1.655,0.092
		c2.507,0,3.771-1.173,3.771-3.104C334.676,59.766,333.388,58.593,331.181,58.593z"/>
	<path fill="#979FA7" d="M348.513,73.264c-4.875,0-8.439-3.702-8.439-8.692c0-5.013,3.726-8.715,8.601-8.715
		s8.438,3.702,8.438,8.715C357.113,69.562,353.388,73.264,348.513,73.264z M348.605,58.432c-3.22,0-5.45,2.621-5.45,6.14
		c0,3.495,2.23,6.14,5.45,6.14c3.196,0,5.427-2.645,5.427-6.14C354.032,61.053,351.801,58.432,348.605,58.432z"/>
	<path fill="#979FA7" d="M367.993,73.264c-4.875,0-8.439-3.702-8.439-8.692c0-5.013,3.726-8.715,8.601-8.715
		s8.438,3.702,8.438,8.715C376.593,69.562,372.868,73.264,367.993,73.264z M368.085,58.432c-3.22,0-5.45,2.621-5.45,6.14
		c0,3.495,2.23,6.14,5.45,6.14c3.196,0,5.427-2.645,5.427-6.14C373.512,61.053,371.282,58.432,368.085,58.432z"/>
	<path fill="#979FA7" d="M393.199,73.31l-10.555-11.13v10.808h-2.874V55.902l0.46-0.092l10.416,10.969V56.132h2.875V73.24
		L393.199,73.31z"/>
</g>
<g>
	<path fill="#B03060" d="M68.229,7v61h-61V7H68.229 M75.229,0h-75v75h75V0L75.229,0z"/>
</g>
</svg>
